<?xml version="1.0" encoding="utf-8"?>
<!-- Generator: Adobe Illustrator 28.0.0, SVG Export Plug-In . SVG Version: 6.00 Build 0)  -->
<svg version="1.1" id="Layer_1" xmlns="http://www.w3.org/2000/svg" xmlns:xlink="http://www.w3.org/1999/xlink" x="0px" y="0px"
	 viewBox="0 0 1200 1200" enable-background="new 0 0 1200 1200" xml:space="preserve">
<g>
	<g>
		<g>
			<path fill="#0366FF" d="M383.4,406.2c0-161.6,131-292.5,292.5-292.5h339.4v292.5H383.4z"/>
			<path fill="#0366FF" d="M675.9,1086.3c-161.6,0-292.5-131-292.5-292.5V454.4h292.5V1086.3z"/>
			<path fill="#0366FF" d="M815.2,606.9L815.2,606.9c-48.9,0-89,40-89,89v0c0,48.9,40,89,89,89h0c48.9,0,89-40,89-89v0
				C904.2,647,864.2,606.9,815.2,606.9z"/>
		</g>
		<path fill="#8C4FF4" d="M124.2,406.2V113.7h96.9c73.7,0,141,27.3,192.5,72.2c-48.3,62.6-78.9,134.9-78.9,220.3H124.2z"/>
	</g>
</g>
</svg>
